<svg id="Certificate" xmlns="http://www.w3.org/2000/svg" width="58.256" height="50.711" viewBox="0 0 58.256 50.711">
  <path id="Path_11" data-name="Path 11" d="M53.113,4.145H5.142A5.148,5.148,0,0,0,0,9.287V42.535a5.148,5.148,0,0,0,5.142,5.142H21.63a.91.91,0,1,0,0-1.821H5.142a3.325,3.325,0,0,1-3.322-3.322V9.287A3.325,3.325,0,0,1,5.142,5.965H53.113a3.326,3.326,0,0,1,3.323,3.322V42.535a3.326,3.326,0,0,1-3.323,3.322.91.91,0,1,0,0,1.821,5.149,5.149,0,0,0,5.143-5.142V9.287A5.149,5.149,0,0,0,53.113,4.145Z" transform="translate(0 -4.145)" fill="#6d1d8e"/>
  <path id="Path_12" data-name="Path 12" d="M20.833,32.145H9.91a.91.91,0,1,0,0,1.821H20.833a.91.91,0,1,0,0-1.821Z" transform="translate(-0.808 -6.657)" fill="#6d1d8e"/>
  <path id="Path_13" data-name="Path 13" d="M20.833,38.694H9.91a.91.91,0,0,0,0,1.821H20.833a.91.91,0,1,0,0-1.821Z" transform="translate(-0.808 -7.245)" fill="#6d1d8e"/>
  <path id="Path_14" data-name="Path 14" d="M49.6,40.039a.863.863,0,0,0-.08-.152,11.833,11.833,0,1,0-17.63-.069.866.866,0,0,0-.062.12L28,53.068a.91.91,0,0,0,1.264,1.077l4.02-1.909L35.811,55.9a.91.91,0,0,0,1.629-.281L40.6,43.8c.046,0,.09.007.136.007.022,0,.043,0,.064,0L43.97,55.617a.91.91,0,0,0,.723.661.935.935,0,0,0,.156.013.911.911,0,0,0,.748-.39l2.533-3.645,4.015,1.89a.911.911,0,0,0,1.261-1.079ZM40.741,21.965A10.013,10.013,0,1,1,30.728,31.978,10.024,10.024,0,0,1,40.741,21.965ZM36.192,53.243l-1.847-2.678a.908.908,0,0,0-1.14-.306L30.318,51.63l3.038-10.415a11.77,11.77,0,0,0,5.41,2.418Zm12.017-2.961a.913.913,0,0,0-1.135.3l-1.853,2.667-2.575-9.608a11.767,11.767,0,0,0,5.419-2.383l3.029,10.378Z" transform="translate(-2.51 -5.58)" fill="#6d1d8e"/>
  <path id="Path_15" data-name="Path 15" d="M21.744,14.965a1.82,1.82,0,0,0-1.821-1.821h-9.1A1.821,1.821,0,0,0,9,14.965v9.1a1.821,1.821,0,0,0,1.821,1.821h9.1a1.821,1.821,0,0,0,1.821-1.821Zm-1.821,9.1h-9.1v-9.1h9.1Z" transform="translate(-0.808 -4.952)" fill="#6d1d8e"/>
  <path id="Path_16" data-name="Path 16" d="M41.462,38.068A5.462,5.462,0,1,0,36,32.606,5.461,5.461,0,0,0,41.462,38.068Zm0-9.1a3.641,3.641,0,1,1-3.641,3.641A3.645,3.645,0,0,1,41.462,28.965Z" transform="translate(-3.231 -6.209)" fill="#6d1d8e"/>
</svg>
