<svg id="office-chair-svgrepo-com" xmlns="http://www.w3.org/2000/svg" width="35.728" height="49.893" viewBox="0 0 35.728 49.893">
  <path id="Path_10" data-name="Path 10" d="M77.183,25.37H72.573a.92.92,0,1,0,0,1.839h1.385v4.526H71.891a3.992,3.992,0,0,0-3.937-3.364h-6.8v-3h4.914a4.317,4.317,0,0,0,4.227-3.9L71.693,4.049A3.711,3.711,0,0,0,67.955,0H52.523a3.711,3.711,0,0,0-3.738,4.049l1.393,17.419a4.315,4.315,0,0,0,4.227,3.9h4.915v3h-6.8a3.992,3.992,0,0,0-3.937,3.364H46.519V27.209H47.9a.92.92,0,1,0,0-1.839h-4.61a.92.92,0,0,0,0,1.839h1.385v5.446a.92.92,0,0,0,.92.92h2.987a3.991,3.991,0,0,0,3.937,3.364h6.8v6.786H50.9a.919.919,0,0,0-.92.92v4.328a.92.92,0,0,0,1.839,0V45.565h7.5v3.408a.92.92,0,0,0,1.839,0V45.565h7.407v3.408a.92.92,0,0,0,1.839,0V44.937a.919.919,0,0,0-.872-1.212H61.159V36.939h6.8a3.991,3.991,0,0,0,3.937-3.364h2.986a.92.92,0,0,0,.92-.92V27.209h1.386a.92.92,0,0,0,0-1.84ZM54.4,23.53a2.475,2.475,0,0,1-2.393-2.209L50.618,3.9a1.872,1.872,0,0,1,1.9-2.063H67.955a1.872,1.872,0,0,1,1.9,2.063L68.466,21.321a2.476,2.476,0,0,1-2.393,2.21H54.4Zm15.7,9.423A2.148,2.148,0,0,1,67.955,35.1H52.523a2.148,2.148,0,0,1-2.146-2.146v-.6a2.148,2.148,0,0,1,2.146-2.146H67.955A2.148,2.148,0,0,1,70.1,32.357v.6Z" transform="translate(-42.375 0)" fill="#6d1d8e"/>
</svg>
