<svg id="presentation-teacher-svgrepo-com" xmlns="http://www.w3.org/2000/svg" width="49.898" height="49.899" viewBox="0 0 49.898 49.899">
  <g id="Group_22" data-name="Group 22" transform="translate(2.495)">
    <g id="Group_21" data-name="Group 21">
      <path id="Path_17" data-name="Path 17" d="M33.094,0a7.485,7.485,0,1,0,7.485,7.485A7.494,7.494,0,0,0,33.094,0Zm0,12.475a4.99,4.99,0,1,1,4.99-4.99A4.99,4.99,0,0,1,33.094,12.475Z" transform="translate(-25.609)" fill="#6d1d8e"/>
    </g>
  </g>
  <g id="Group_24" data-name="Group 24" transform="translate(19.959 12.474)">
    <g id="Group_23" data-name="Group 23">
      <path id="Path_18" data-name="Path 18" d="M232.253,128H207.3a2.5,2.5,0,0,0-2.495,2.495V132.4l2.495,1.247v-3.153h24.949v19.958H207.3v-2.966l-2.495-.623v3.588a2.5,2.5,0,0,0,2.495,2.495h10.272l-6.352,10.586a1.247,1.247,0,0,0,2.14,1.282l5.167-8.612v7.971a1.247,1.247,0,0,0,2.495,0V156.2l5.168,8.612a1.247,1.247,0,0,0,1.07.606,1.223,1.223,0,0,0,.641-.178,1.245,1.245,0,0,0,.429-1.711l-6.352-10.586h10.271a2.5,2.5,0,0,0,2.495-2.495V130.495A2.5,2.5,0,0,0,232.253,128Z" transform="translate(-204.809 -128)" fill="#6d1d8e"/>
    </g>
  </g>
  <g id="Group_26" data-name="Group 26" transform="translate(0 17.464)">
    <g id="Group_25" data-name="Group 25" transform="translate(0)">
      <path id="Path_19" data-name="Path 19" d="M43.618,181.352a1.238,1.238,0,0,0-1.542-.855l-15.394,4.4a2.491,2.491,0,0,0-.61-.442l-9.98-4.99a2.5,2.5,0,0,0-1.116-.264H5a2.5,2.5,0,0,0-2.455,2.048L.046,194.97A2.495,2.495,0,0,0,2.5,197.912H4.1L5,209.336a2.494,2.494,0,0,0,2.487,2.3h4.99a2.5,2.5,0,0,0,2.48-2.219L17.14,189.8l7.21,1.8a2.5,2.5,0,0,0,3.1-2.421v-1.91l15.313-4.375A1.244,1.244,0,0,0,43.618,181.352ZM24.955,189.18l-9.98-2.495-2.495,22.453H7.491L6.4,195.417H2.5L5,181.7H8.738v7.589a1.247,1.247,0,1,0,2.495,0V181.7h3.742l9.98,4.99Z" transform="translate(-0.006 -179.201)" fill="#6d1d8e"/>
    </g>
  </g>
</svg>
