<svg xmlns="http://www.w3.org/2000/svg" width="100.003" height="46.65" viewBox="0 0 100.003 46.65">
  <g id="devops-2" transform="translate(-0.889 -77.24)">
    <g id="Group_29" data-name="Group 29" transform="translate(0.889 77.367)">
      <path id="Path_24" data-name="Path 24" d="M44.237,172.767l7.306.538v6.24S37.892,192.991,18,177.072h6.778l.751-6.132s7.736,7.851,18.707,1.827Z" transform="translate(-12.021 -138.327)" fill="#0d2c40"/>
      <path id="Path_25" data-name="Path 25" d="M8.363,93.66s-14.846,13.822-2.69,31.52l6.785.646.646-6.562s-6.237-10.22,1.82-18.288L7.7,100.418Z" transform="translate(-0.889 -88.049)" fill="#0d2c40"/>
      <path id="Path_26" data-name="Path 26" d="M26.1,82.245s18.518-11.939,32.6,2.474l-6.24-.43-.646,6.988s-7.1-8.6-18.931-1.932l-7.208-.321Z" transform="translate(-17.012 -77.602)" fill="#0d2c40"/>
      <path id="Path_27" data-name="Path 27" d="M105.1,108.258l.43-7.208,6.562.646,19.794,22.051H125.11l-.646,6.132Z" transform="translate(-68.688 -92.857)" fill="#0d2c40"/>
    </g>
    <g id="Group_30" data-name="Group 30" transform="translate(34.936 77.24)">
      <path id="Path_28" data-name="Path 28" d="M98.33,121.308,123.393,93.66l6.67.646-.43,6.778L105,128.513l.1-7.1Z" transform="translate(-98.33 -87.923)" fill="#02d35f"/>
      <path id="Path_29" data-name="Path 29" d="M172.83,81.981l6.939.566-.482,6.618s10.245-6.537,17.75.4l7.338.321.66-6.443S193.567,70.517,172.83,81.981Z" transform="translate(-146.799 -77.24)" fill="#02d35f"/>
      <path id="Path_30" data-name="Path 30" d="M244.206,104.252l7.338.43.566-6.481s16.055,17.886-1.293,33.267l-7.1-.493.646-7.338s9.6-10.751-.161-19.385Z" transform="translate(-192.92 -90.876)" fill="#02d35f"/>
      <path id="Path_31" data-name="Path 31" d="M172.117,169.736l-7.411-.646-.416,6.537s13.152,15.168,33,3.064l-6.778-.549.646-7.02S182.522,178.045,172.117,169.736Z" transform="translate(-141.243 -136.997)" fill="#02d35f"/>
    </g>
    <path id="Path_32" data-name="Path 32" d="M210.121,138.567v2.446a1.318,1.318,0,0,0-.031.29,1.348,1.348,0,0,0,.031.294v3.941H208.29V138.55Z" transform="translate(-134.934 -39.888)" fill="#0d2c40"/>
    <path id="Path_33" data-name="Path 33" d="M195.681,135a2.907,2.907,0,0,0-1.611.758A2.8,2.8,0,0,0,193,137.735a2.98,2.98,0,0,0,1.073,2.1,2.373,2.373,0,0,0,1.429.646,2.548,2.548,0,0,0,2.54-2.739C198.04,136.421,197,134.919,195.681,135Zm-.556,3.952a1.115,1.115,0,0,1-1.048-.919,1.347,1.347,0,0,1-.031-.294,1.317,1.317,0,0,1,.031-.29,1.115,1.115,0,0,1,1.048-.919,1.216,1.216,0,0,1,0,2.421Zm6.555-1.866c-.266-.084-1.247-.238-1.247-.608,0-.21.3-.234.447-.227.419,0,1.048.5,1.4.405.311-.08.584-.884.7-1.157a4.462,4.462,0,0,0-2.914-.531,1.747,1.747,0,0,0-1.317,2.306c.444,1.15,1.806.7,2.495,1.4.283.294-.3.426-.493.419a4.141,4.141,0,0,1-1.656-.629c-.171.245-.7.828-.636,1.132s.758.531,1.048.622c.971.314,2.47.433,3.2-.451.912-1.062.115-2.31-1.024-2.68Zm-14.217-4.022a3.843,3.843,0,1,0,3.843,3.843A3.843,3.843,0,0,0,187.463,133.06Zm0,5.8a1.971,1.971,0,1,1,1.394-.575,1.971,1.971,0,0,1-1.394.575Z" transform="translate(-118.884 -36.316)" fill="#0d2c40"/>
    <path id="Path_34" data-name="Path 34" d="M59.426,134.979H57.235l2.317,6.059h1v-2.582Zm2.254.01h2.191l-2.32,6.059h-1v-2.582Zm-12.89-.863a5.272,5.272,0,0,0-2.481-.915c-1.181-.112-2.446.031-3.539.031v7.788h.052c.21.024.419.045.632.059a13.882,13.882,0,0,0,2.523-.021,5.055,5.055,0,0,0,3.267-1.377,3.532,3.532,0,0,0,.891-2.285v-.283A3.63,3.63,0,0,0,48.79,134.126Zm-1.782,4.759a4.4,4.4,0,0,1-2.191.28v-4.057a3.893,3.893,0,0,1,2.32.374,2.086,2.086,0,0,1-.14,3.4Zm9.266.608c-.178-.15-.405-.405-.646-.447-.384-.052-.863.465-1.289.507a1.418,1.418,0,0,1-1.4-.943H56.98a3.633,3.633,0,0,0-1.048-3.064,3.139,3.139,0,0,0-5,1.9c-.349,2.4,1.541,3.955,3.843,3.655a3.019,3.019,0,0,0,1.544-.7c.157-.14.388-.332.273-.559A1.3,1.3,0,0,0,56.275,139.493Zm-1.289-1.981H52.924a1.048,1.048,0,0,1,2.061,0Z" transform="translate(-27.247 -36.386)" fill="#02d35f"/>
  </g>
</svg>
