<svg xmlns="http://www.w3.org/2000/svg" xmlns:xlink="http://www.w3.org/1999/xlink" width="43.876" height="26.872" viewBox="0 0 43.876 26.872">
  <defs>
    <clipPath id="clip-path">
      <path id="Path_6902" data-name="Path 6902" d="M241.235,274.188l-4.177,2.412a.507.507,0,0,0-.255.437v4.828a.505.505,0,0,0,.255.436l4.179,2.414a.5.5,0,0,0,.5,0l4.18-2.414a.506.506,0,0,0,.25-.436v-4.828a.506.506,0,0,0-.251-.437l-4.179-2.412a.51.51,0,0,0-.505,0" transform="translate(-236.803 -274.121)" fill="none"/>
    </clipPath>
    <linearGradient id="linear-gradient" x1="-104.573" y1="54.252" x2="-104.482" y2="54.252" gradientUnits="objectBoundingBox">
      <stop offset="0" stop-color="#3e863d"/>
      <stop offset="0.3" stop-color="#3e863d"/>
      <stop offset="0.5" stop-color="#55934f"/>
      <stop offset="0.8" stop-color="#5aad45"/>
      <stop offset="1" stop-color="#5aad45"/>
    </linearGradient>
    <clipPath id="clip-path-2">
      <path id="Path_6903" data-name="Path 6903" d="M236.887,282.169a.522.522,0,0,0,.15.129l3.583,2.071.6.343a.5.5,0,0,0,.292.067.585.585,0,0,0,.1-.019l4.406-8.069a.535.535,0,0,0-.117-.094l-2.736-1.58-1.448-.832a.513.513,0,0,0-.13-.052Z" transform="translate(-236.887 -274.133)" fill="none"/>
    </clipPath>
    <linearGradient id="linear-gradient-2" x1="-92.295" y1="58.115" x2="-92.204" y2="58.115" gradientUnits="objectBoundingBox">
      <stop offset="0" stop-color="#3e863d"/>
      <stop offset="0.57" stop-color="#3e863d"/>
      <stop offset="0.72" stop-color="#619857"/>
      <stop offset="1" stop-color="#76ac64"/>
    </linearGradient>
    <clipPath id="clip-path-3">
      <path id="Path_6904" data-name="Path 6904" d="M241.388,274.123h0a.525.525,0,0,0-.2.065l-4.166,2.405,4.493,8.185a.537.537,0,0,0,.18-.063l4.177-2.414a.5.5,0,0,0,.242-.333v-.015l-4.578-7.821a.557.557,0,0,0-.1-.01h-.041" transform="translate(-237.018 -274.122)" fill="none"/>
    </clipPath>
    <linearGradient id="linear-gradient-3" x1="-133.865" y1="68.463" x2="-133.728" y2="68.463" gradientUnits="objectBoundingBox">
      <stop offset="0" stop-color="#6bbf47"/>
      <stop offset="0.16" stop-color="#6bbf47"/>
      <stop offset="0.38" stop-color="#79b461"/>
      <stop offset="0.47" stop-color="#75ac64"/>
      <stop offset="0.7" stop-color="#659e5a"/>
      <stop offset="0.9" stop-color="#3e863d"/>
      <stop offset="1" stop-color="#3e863d"/>
    </linearGradient>
  </defs>
  <g id="Group_5463" data-name="Group 5463" transform="translate(0)">
    <g id="Group_5462" data-name="Group 5462" transform="translate(0 0)">
      <g id="Group_5457" data-name="Group 5457" transform="translate(11.509 6.14)">
        <g id="Group_5456" data-name="Group 5456" clip-path="url(#clip-path)">
          <rect id="Rectangle_394" data-name="Rectangle 394" width="13.716" height="13.113" transform="translate(-4.223 8.614) rotate(-63.886)" fill="url(#linear-gradient)"/>
        </g>
      </g>
      <g id="Group_5459" data-name="Group 5459" transform="translate(11.613 6.155)">
        <g id="Group_5458" data-name="Group 5458" clip-path="url(#clip-path-2)">
          <rect id="Rectangle_395" data-name="Rectangle 395" width="13.672" height="13.993" transform="translate(-5.092 3.762) rotate(-36.46)" fill="url(#linear-gradient-2)"/>
        </g>
      </g>
      <g id="Group_5461" data-name="Group 5461" transform="translate(11.776 6.141)">
        <g id="Group_5460" data-name="Group 5460" clip-path="url(#clip-path-3)">
          <rect id="Rectangle_396" data-name="Rectangle 396" width="9.092" height="10.656" transform="translate(0 0)" fill="url(#linear-gradient-3)"/>
        </g>
      </g>
      <path id="Path_6905" data-name="Path 6905" d="M245.933,292.922a.851.851,0,0,1-.416-.111l-1.323-.784c-.2-.111-.1-.15-.036-.173a2.656,2.656,0,0,0,.6-.273.1.1,0,0,1,.1.007l1.016.6a.134.134,0,0,0,.123,0l3.963-2.287a.124.124,0,0,0,.061-.107v-4.572a.125.125,0,0,0-.062-.109L246,282.832a.119.119,0,0,0-.122,0l-3.96,2.285a.123.123,0,0,0-.063.108V289.8a.119.119,0,0,0,.062.106l1.085.627c.589.3.947-.052.947-.4v-4.513a.113.113,0,0,1,.116-.114h.5a.113.113,0,0,1,.114.114v4.515a1.1,1.1,0,0,1-1.172,1.237,1.7,1.7,0,0,1-.914-.248l-1.039-.6a.837.837,0,0,1-.416-.723v-4.572a.833.833,0,0,1,.416-.723l3.966-2.289a.871.871,0,0,1,.833,0l3.961,2.29a.836.836,0,0,1,.415.723V289.8a.837.837,0,0,1-.415.721l-3.961,2.289a.836.836,0,0,1-.417.111" transform="translate(-224.247 -266.05)" fill="#689f63"/>
      <path id="Path_6906" data-name="Path 6906" d="M246.392,289.36c-1.732,0-2.1-.8-2.1-1.463a.113.113,0,0,1,.114-.114h.512a.116.116,0,0,1,.114.1c.077.521.307.785,1.355.785.834,0,1.19-.189,1.19-.632,0-.255-.1-.443-1.4-.571-1.085-.107-1.756-.346-1.756-1.213,0-.8.676-1.277,1.8-1.277,1.269,0,1.9.441,1.977,1.387a.115.115,0,0,1-.03.088.124.124,0,0,1-.086.037h-.514a.113.113,0,0,1-.111-.089c-.124-.549-.423-.724-1.239-.724-.91,0-1.017.317-1.017.555,0,.288.125.372,1.356.535s1.8.39,1.8,1.247-.72,1.357-1.976,1.357m4.826-4.849h.134a.115.115,0,0,0,.129-.122c0-.117-.079-.117-.125-.117h-.137Zm-.161-.375h.3c.1,0,.3,0,.3.226a.2.2,0,0,1-.161.21c.118.009.125.086.142.2a.879.879,0,0,0,.043.226h-.18c0-.04-.034-.257-.034-.269a.077.077,0,0,0-.089-.072h-.149V285h-.166Zm-.354.427a.64.64,0,1,0,.638-.64.641.641,0,0,0-.638.64m1.4,0a.763.763,0,1,1-.762-.764.764.764,0,0,1,.762.764" transform="translate(-223.483 -265.639)" fill="#689f63"/>
      <path id="Path_6907" data-name="Path 6907" d="M236.951,278.158a.508.508,0,0,0-.255-.441l-4.2-2.416a.474.474,0,0,0-.23-.067h-.043a.487.487,0,0,0-.232.067l-4.2,2.416a.51.51,0,0,0-.253.441l.01,6.512a.249.249,0,0,0,.125.219.242.242,0,0,0,.252,0l2.5-1.431a.51.51,0,0,0,.253-.44v-3.042a.507.507,0,0,1,.255-.44l1.063-.612a.51.51,0,0,1,.253-.068.5.5,0,0,1,.252.068l1.064.612a.508.508,0,0,1,.253.44v3.041a.512.512,0,0,0,.255.441l2.5,1.429a.244.244,0,0,0,.253,0,.255.255,0,0,0,.125-.22Zm19.824,3.39a.125.125,0,0,1-.065.109l-1.442.832a.128.128,0,0,1-.127,0l-1.444-.832a.123.123,0,0,1-.062-.109v-1.667a.125.125,0,0,1,.061-.109l1.444-.833a.122.122,0,0,1,.127,0l1.443.833a.125.125,0,0,1,.063.109Zm.389-12.34a.253.253,0,0,0-.376.222v6.447a.178.178,0,0,1-.267.154l-1.052-.606a.506.506,0,0,0-.507,0l-4.2,2.425a.506.506,0,0,0-.253.438v4.852a.508.508,0,0,0,.253.44l4.2,2.428a.512.512,0,0,0,.507,0l4.2-2.429a.506.506,0,0,0,.253-.438V271.047a.511.511,0,0,0-.261-.443Zm13.995,10.63a.507.507,0,0,0,.252-.438v-1.176a.505.505,0,0,0-.252-.438l-4.175-2.424a.5.5,0,0,0-.509,0l-4.2,2.424a.507.507,0,0,0-.253.44v4.85a.507.507,0,0,0,.256.441l4.175,2.379a.5.5,0,0,0,.5,0l2.526-1.4a.251.251,0,0,0,.13-.22.254.254,0,0,0-.128-.221l-4.228-2.426a.25.25,0,0,1-.127-.219v-1.521a.252.252,0,0,1,.125-.22l1.316-.759a.248.248,0,0,1,.252,0l1.318.759a.256.256,0,0,1,.127.219v1.2a.253.253,0,0,0,.381.22Z" transform="translate(-227.535 -269.176)" fill="#333"/>
      <path id="Path_6908" data-name="Path 6908" d="M259.214,277.582a.1.1,0,0,1,.1,0l.807.466a.1.1,0,0,1,.048.083v.931a.1.1,0,0,1-.048.084l-.807.466a.1.1,0,0,1-.1,0l-.806-.466a.1.1,0,0,1-.048-.084v-.931a.092.092,0,0,1,.048-.083Z" transform="translate(-220.082 -267.147)" fill="#689f63"/>
    </g>
  </g>
</svg>
