<svg xmlns="http://www.w3.org/2000/svg" width="99.661" height="15.051" viewBox="0 0 99.661 15.051">
  <g id="Group_5514" data-name="Group 5514" transform="translate(-619.169 -296.351)">
    <path id="Path_7035" data-name="Path 7035" d="M623.9,301.156a5.139,5.139,0,0,0,0,10.246,3.8,3.8,0,0,0,3.129-1.453v.633a.67.67,0,0,0,.634.634h1.565v-9.837h-2.2v1.248a3.807,3.807,0,0,0-3.129-1.471m.392,2.011a3.136,3.136,0,0,1,0,6.258,2.975,2.975,0,0,1-2.892-3.15,2.931,2.931,0,0,1,2.888-3.108"/>
    <path id="Path_7036" data-name="Path 7036" d="M632.284,311.215a.615.615,0,0,1-.633-.633v-9.2h2.2V302.6a3.428,3.428,0,0,1,2.965-1.444,3.673,3.673,0,0,1,3.741,3.767v6.3h-1.527a.674.674,0,0,1-.671-.67V305.4a2.086,2.086,0,0,0-2.048-2.234,2.658,2.658,0,0,0-2.46,2.83v5.216Z"/>
    <path id="Path_7037" data-name="Path 7037" d="M646.963,301.156a5.139,5.139,0,0,0,0,10.246,3.8,3.8,0,0,0,3.13-1.453v.633a.669.669,0,0,0,.634.634h1.565V296.461h-2.2v6.166a3.808,3.808,0,0,0-3.13-1.471m.392,2.011a3.136,3.136,0,0,1,0,6.258,2.974,2.974,0,0,1-2.891-3.15,2.931,2.931,0,0,1,2.887-3.108"/>
    <path id="Path_7038" data-name="Path 7038" d="M655.348,311.215a.615.615,0,0,1-.634-.633v-9.2h2.2v1.639a2.711,2.711,0,0,1,2.646-1.751,4.617,4.617,0,0,1,.782.074v2.273a3.16,3.16,0,0,0-1.043-.186,2.6,2.6,0,0,0-2.385,2.83v4.957Z"/>
    <path id="Path_7039" data-name="Path 7039" d="M673.679,311.215a.615.615,0,0,1-.634-.633v-9.2h2.2v9.836Z"/>
    <path id="Path_7040" data-name="Path 7040" d="M681.689,301.156a5.139,5.139,0,0,0,0,10.246,3.8,3.8,0,0,0,3.13-1.453v.633a.669.669,0,0,0,.633.634h1.566V296.461h-2.2v6.166a3.81,3.81,0,0,0-3.13-1.471m.392,2.011a3.136,3.136,0,0,1,0,6.258,2.974,2.974,0,0,1-2.891-3.15,2.93,2.93,0,0,1,2.887-3.108"/>
    <path id="Path_7041" data-name="Path 7041" d="M674.129,296.351a1.453,1.453,0,1,1-1.453,1.454,1.453,1.453,0,0,1,1.453-1.454"/>
    <path id="Path_7042" data-name="Path 7042" d="M666.137,301.152a5.064,5.064,0,0,0-5.128,5.128,5.006,5.006,0,0,0,5.123,5.122,5.126,5.126,0,1,0,.005-10.25m.008,2.053a2.969,2.969,0,0,1,2.95,3.081,2.947,2.947,0,1,1-5.887.029,2.963,2.963,0,0,1,2.937-3.11"/>
    <path id="Path_7043" data-name="Path 7043" d="M712.1,301.109l2.18-3.775a.442.442,0,0,0-.161-.6.436.436,0,0,0-.6.16l-2.208,3.823a13.779,13.779,0,0,0-11.239,0l-2.208-3.823a.442.442,0,0,0-.764.443l2.179,3.775a13.014,13.014,0,0,0-6.724,10.293H718.83a13,13,0,0,0-6.726-10.293m-12.441,6.6a1.1,1.1,0,1,1,1.1-1.1,1.1,1.1,0,0,1-1.1,1.1m12.061,0a1.1,1.1,0,1,1,1.1-1.1,1.1,1.1,0,0,1-1.1,1.1" fill="#32de84"/>
  </g>
</svg>
