<svg xmlns="http://www.w3.org/2000/svg" width="68.907" height="67.1" viewBox="0 0 68.907 67.1">
  <g id="kubernets" transform="translate(-0.532 -0.165)">
    <path id="Path_56" data-name="Path 56" d="M25.468,68.849a5.255,5.255,0,0,1-4.144-2L5.731,47.463a5.231,5.231,0,0,1-1.025-4.545l5.569-24.193a5.27,5.27,0,0,1,2.9-3.609L35.716,4.333a5.288,5.288,0,0,1,4.634,0L62.895,15.071a5.27,5.27,0,0,1,2.9,3.609L71.36,42.873a5.375,5.375,0,0,1-1.025,4.545L54.741,66.8a5.394,5.394,0,0,1-4.144,2l-25.129.045Z" transform="translate(-2.937 -2.654)" fill="#326de6"/>
    <path id="Path_57" data-name="Path 57" d="M35.052,2.259a4.358,4.358,0,0,1,1.827.4L59.423,13.4a4.327,4.327,0,0,1,2.317,2.9L67.31,40.487a4.166,4.166,0,0,1-.847,3.653L50.869,63.522a4.245,4.245,0,0,1-3.342,1.6h-25a4.245,4.245,0,0,1-3.342-1.6L3.6,44.141a4.459,4.459,0,0,1-.847-3.653L8.319,16.294a4.255,4.255,0,0,1,2.317-2.9L33.181,2.616a5.365,5.365,0,0,1,1.871-.356Zm0-2.094a6.745,6.745,0,0,0-2.762.624L9.745,11.571a6.31,6.31,0,0,0-3.475,4.322L.7,40.086a6.318,6.318,0,0,0,1.248,5.436L17.542,64.9a6.294,6.294,0,0,0,4.946,2.361h25A6.294,6.294,0,0,0,52.428,64.9L68.023,45.522a6.285,6.285,0,0,0,1.247-5.436L63.7,15.893a6.309,6.309,0,0,0-3.475-4.322L37.77.788A6.392,6.392,0,0,0,35.052.165Z" fill="#fff"/>
    <path id="Path_58" data-name="Path 58" d="M87.224,66.432H87.18c-.045,0-.089,0-.089-.045-.089,0-.178-.045-.267-.045a6.092,6.092,0,0,0-.847-.089,1.664,1.664,0,0,1-.446-.045h-.045a11.755,11.755,0,0,1-2.406-.4.869.869,0,0,1-.49-.49c0-.045-.045-.045-.045-.089l-.579-.178a17.624,17.624,0,0,0-.312-6.283,18.359,18.359,0,0,0-2.5-5.837l.446-.4v-.089a1.008,1.008,0,0,1,.223-.668,13,13,0,0,1,2.005-1.381c.134-.089.267-.134.4-.223a6.672,6.672,0,0,0,.757-.445c.045-.045.134-.089.223-.178.045-.045.089-.045.089-.089a1.488,1.488,0,0,0,.312-2.005,1.267,1.267,0,0,0-1.025-.49,1.656,1.656,0,0,0-.98.356l-.089.089c-.089.045-.134.134-.223.178a7.359,7.359,0,0,0-.579.624,2.048,2.048,0,0,1-.312.312,11.326,11.326,0,0,1-1.782,1.6.719.719,0,0,1-.4.134.563.563,0,0,1-.267-.045h-.089l-.535.357a21.658,21.658,0,0,0-1.827-1.693,17.793,17.793,0,0,0-9.312-3.7L66.15,44.6l-.089-.089a.932.932,0,0,1-.357-.579,15.652,15.652,0,0,1,.134-2.406v-.045a1.585,1.585,0,0,1,.089-.446c.045-.267.089-.535.134-.847v-.4A1.36,1.36,0,0,0,63.7,38.763a1.412,1.412,0,0,0-.4,1.025v.356a2.6,2.6,0,0,0,.134.847c.045.134.045.267.089.446v.045a11.522,11.522,0,0,1,.134,2.406.932.932,0,0,1-.356.579l-.089.089-.045.579a22.343,22.343,0,0,0-2.406.356,17.178,17.178,0,0,0-8.822,4.99l-.446-.312H51.4c-.089,0-.178.045-.267.045a.72.72,0,0,1-.4-.134,11.813,11.813,0,0,1-1.782-1.649,2.048,2.048,0,0,0-.312-.312,7.369,7.369,0,0,0-.579-.624c-.045-.045-.134-.089-.223-.178-.045-.045-.089-.045-.089-.089a1.557,1.557,0,0,0-.98-.357,1.268,1.268,0,0,0-1.025.49,1.488,1.488,0,0,0,.312,2c.045,0,.045.045.089.045.089.045.134.134.223.178a6.756,6.756,0,0,0,.757.446,1.8,1.8,0,0,1,.4.223,12.991,12.991,0,0,1,2,1.381.818.818,0,0,1,.223.668V52.4l.445.4a1.574,1.574,0,0,0-.223.356,17.353,17.353,0,0,0-2.5,11.763L46.9,65.1c0,.045-.045.045-.045.089a1.035,1.035,0,0,1-.49.49,11.241,11.241,0,0,1-2.406.4h-.045a1.516,1.516,0,0,0-.445.045,6.093,6.093,0,0,0-.847.089c-.089,0-.178.045-.267.045a.164.164,0,0,0-.134.045,1.461,1.461,0,0,0-1.158,1.648,1.373,1.373,0,0,0,1.426,1.025.977.977,0,0,0,.357-.045c.045,0,.089,0,.089-.045.089,0,.178-.045.267-.045a4.269,4.269,0,0,0,.8-.312c.134-.045.267-.134.4-.178h.045a10.926,10.926,0,0,1,2.317-.668h.089a.99.99,0,0,1,.579.223c.045,0,.045.045.089.045l.624-.089a17.623,17.623,0,0,0,5.837,8.376A18.067,18.067,0,0,0,55.9,77.526l-.267.579c0,.045.045.045.045.089a.916.916,0,0,1,.089.713A12.536,12.536,0,0,1,54.61,81v.045c-.089.134-.178.223-.267.356-.178.223-.312.446-.49.713a.97.97,0,0,0-.134.223.155.155,0,0,1-.045.089,1.409,1.409,0,0,0,.579,1.916,1.187,1.187,0,0,0,.535.134,1.6,1.6,0,0,0,1.337-.847.155.155,0,0,1,.045-.089.982.982,0,0,1,.134-.223,8.369,8.369,0,0,0,.267-.8l.134-.4a10.475,10.475,0,0,1,.936-2.228,1.145,1.145,0,0,1,.579-.4c.045,0,.045,0,.089-.045l.312-.579a17.406,17.406,0,0,0,6.238,1.158,16.176,16.176,0,0,0,3.877-.445,19.8,19.8,0,0,0,2.317-.668l.267.49c.045,0,.045,0,.089.045a.826.826,0,0,1,.579.4,15.256,15.256,0,0,1,.936,2.228v.045l.134.4a5.647,5.647,0,0,0,.267.8c.045.089.089.134.134.223a.155.155,0,0,0,.045.089,1.513,1.513,0,0,0,1.336.847,1.187,1.187,0,0,0,.535-.134,1.328,1.328,0,0,0,.668-.8,1.613,1.613,0,0,0-.089-1.114c0-.045-.045-.045-.045-.089a.982.982,0,0,0-.134-.223,4.043,4.043,0,0,0-.49-.713c-.089-.134-.178-.223-.267-.356V81a9.975,9.975,0,0,1-1.159-2.094,1.242,1.242,0,0,1,.045-.713c0-.045.045-.045.045-.089l-.223-.535a17.673,17.673,0,0,0,7.753-9.758l.535.089c.045,0,.045-.045.089-.045a1.134,1.134,0,0,1,.579-.223h.089a10.929,10.929,0,0,1,2.317.668h.045c.134.045.267.134.4.178a4.293,4.293,0,0,0,.8.312c.089,0,.178.045.267.045a.164.164,0,0,1,.134.045.983.983,0,0,0,.357.045A1.5,1.5,0,0,0,88.517,67.9a1.715,1.715,0,0,0-1.292-1.47ZM66.6,64.249l-1.96.936-1.96-.936-.49-2.094,1.336-1.693H65.7l1.337,1.693L66.6,64.249Zm11.629-4.633a14.049,14.049,0,0,1,.312,4.5l-6.817-1.96a1.208,1.208,0,0,1-.847-1.426,1.062,1.062,0,0,1,.267-.49l5.391-4.857a14.289,14.289,0,0,1,1.693,4.233Zm-3.832-6.906-5.837,4.144A1.187,1.187,0,0,1,67,56.585a.994.994,0,0,1-.223-.49l-.4-7.263a13.523,13.523,0,0,1,8.02,3.877ZM61.472,49.055c.49-.089.936-.178,1.426-.267l-.4,7.129a1.219,1.219,0,0,1-1.2,1.158,1.06,1.06,0,0,1-.535-.134l-5.926-4.232a13.592,13.592,0,0,1,6.639-3.654Zm-8.777,6.327L58,60.1a1.186,1.186,0,0,1,.134,1.649.889.889,0,0,1-.535.357l-6.906,2a14.343,14.343,0,0,1,2-8.733Zm-1.2,12.074,7.085-1.2a1.2,1.2,0,0,1,1.247.936,1.274,1.274,0,0,1-.045.713l-2.718,6.549a14.045,14.045,0,0,1-5.569-7Zm16.263,8.866a14.55,14.55,0,0,1-3.119.356,15.089,15.089,0,0,1-4.5-.713l3.52-6.371a1.169,1.169,0,0,1,1.426-.312,1.9,1.9,0,0,1,.535.49l3.431,6.193c-.4.134-.847.223-1.292.356Zm8.688-6.193a14.144,14.144,0,0,1-4.277,4.322l-2.807-6.728a1.2,1.2,0,0,1,.624-1.381,1.423,1.423,0,0,1,.624-.134l7.129,1.2a8.97,8.97,0,0,1-1.292,2.718Z" transform="translate(-29.583 -27.861)" fill="#fff"/>
  </g>
</svg>
