<svg xmlns="http://www.w3.org/2000/svg" width="121.418" height="29.74" viewBox="0 0 121.418 29.74">
  <g id="jquery" transform="translate(0)">
    <path id="Path_38" data-name="Path 38" d="M219.417,26.444h0l-.777,2.755Zm4,5.981-.856-.005Zm-.22,4.114h0l-5.132.019Zm1.076-4.109-.857-.005Zm-.626,3.759.894-3.409-.894,3.41Zm18.895-15.7-1.665,7.829Zm-4.281,0-1.264,5.848,1.264-5.849Z" transform="translate(-167.496 -15.737)" fill="#131b28"/>
    <path id="Path_39" data-name="Path 39" d="M269.337,18.971h-3.561a.469.469,0,0,0-.436.352l-1.264,5.849-1.264,5.849a.467.467,0,0,1-.435.351h-2.52c-2.494,0-2.205-1.725-1.695-4.088l.015-.071.056-.3.011-.056.114-.606.122-.65c.037-.2.093-.482.13-.662l.575-2.808.575-2.808a.283.283,0,0,0-.288-.353h-3.655a.465.465,0,0,0-.434.352l-.786,3.729-.786,3.728a.022.022,0,0,0,0,.006l-.073.346c-.905,4.133-.665,8.074,4.255,8.2l.143,0h7.723a.466.466,0,0,0,.435-.352l1.665-7.828,1.665-7.829a.281.281,0,0,0-.285-.353Zm14.206,12.441a.282.282,0,0,1,.288.352l-.346,1.69m-.345,1.691.346-1.691-.346,1.692Zm-.434.356h0c-1.048.008-4.2.032-6.564.032C279.024,35.533,282.705,35.5,282.706,35.5Zm-8.687-6.266c0-.185.208-.5.406-.5l-.445-.007C273.779,30.74,274.019,29.235,274.019,29.235Z" transform="translate(-194.579 -14.572)" fill="#131b28"/>
    <path id="Path_40" data-name="Path 40" d="M162.726,35.4h0Zm7.075-4.12a.282.282,0,0,1,.288.352l-.346,1.69-.056.275m-5.275,1.8h0Zm-.874,0h0Zm-.267,0h0Zm-.271,0h0Zm.487,0h0Zm.911,0-.859,0ZM168.966,35.363Zm.431-.354.29-1.416-.29,1.417Zm-6.21.386h0Zm-.531,0h0Zm.269,0h0Zm-52.09-6.254.553-2.452-.633,2.8-.607,2.855.532-2.5c.041-.194.111-.51.154-.7Zm6.621-10.348h-3.911a.474.474,0,0,0-.439.35l-.371,1.637-.371,1.637a.275.275,0,0,0,.28.35h3.941a.469.469,0,0,0,.437-.351l.358-1.637.359-1.636h0a.277.277,0,0,0-.283-.351Zm-.851,5.445h0l-1.147,5.306Zm-11.36,17.582s1.971.025,3.224.025c-.952,0-2.524-.017-3.226-.026Zm6.7-17.582-.554,2.452Z" transform="translate(-80.838 -14.435)" fill="#131b28"/>
    <path id="Path_41" data-name="Path 41" d="M115.379,31.046h-3.941A.472.472,0,0,0,111,31.4l-.554,2.452-.553,2.452c-.044.193-.113.509-.154.7l-.532,2.5-.532,2.5q-.078.35-.19.692s-.736,2.191-1.974,2.166l-.155,0-1.071-.02h0a.469.469,0,0,0-.442.343l-.409,1.718-.408,1.717a.275.275,0,0,0,.275.354c.7.008,2.274.026,3.226.026,3.092,0,4.722-1.713,5.767-6.643l1.223-5.658,1.147-5.306a.278.278,0,0,0-.283-.351Zm55.99,11.309a.28.28,0,0,1-.284-.352l2.965-13.888M175.49,42l1.2-5.928Z" transform="translate(-79.895 -21.595)" fill="#131b28"/>
    <path id="Path_42" data-name="Path 42" d="M393.26,41.427a1.53,1.53,0,0,1,.032-.528l1.407-6.592-1.483,6.944a.28.28,0,0,0,.284.352h.36C393.663,41.6,393.284,41.524,393.26,41.427Zm4.128.1a1.866,1.866,0,0,1-.556.079h.36a.459.459,0,0,0,.431-.353l.071-.352C397.655,41.091,397.5,41.48,397.388,41.524Zm.835-3.237.529-2.616a.023.023,0,0,1,0,.005Zm11.7-9.993.163.675a.273.273,0,0,1-.277.35M397.694,40.9l.528-2.612Zm12.065-13.3.162.691ZM398.751,35.67c.039-.194.1-.507.146-.7l.565-2.648-.64,3-.071.348Zm-2.521-8.535c-.039.187-.09.423-.123.579L394.7,34.307l1.482-6.944Z" transform="translate(-302.027 -20.843)" fill="#131b28"/>
    <path id="Path_43" data-name="Path 43" d="M410.218,22.834l-.163-.675-.162-.691-.082-.35c-.32-1.244-1.26-1.962-3.3-1.962l-3.177,0-2.926,0h-3.292a.464.464,0,0,0-.434.352h0l-.146.688-.172.812-.048.227-1.482,6.944-1.407,6.592a1.536,1.536,0,0,0-.032.528c.024.1.4.176.6.176h2.97a1.863,1.863,0,0,0,.556-.079c.108-.044.267-.432.307-.626l.528-2.612.529-2.611v-.005l.07-.348.64-3,.565-2.65a.466.466,0,0,1,.434-.35l9.345,0A.272.272,0,0,0,410.218,22.834Z" transform="translate(-302.161 -14.708)" fill="#131b28"/>
    <path id="Path_44" data-name="Path 44" d="M243.982,2.023l-.719,0h-2.991a.765.765,0,0,0-.563.3l-6.614,9.69c-.112.164-.239.139-.283-.053l-.487-2.135a.473.473,0,0,0-.44-.35h-4.252a.257.257,0,0,0-.261.345l1.905,6.675a1.577,1.577,0,0,1,.009.694l-.83,3.23a.266.266,0,0,0,.27.349h4.2a.489.489,0,0,0,.449-.349l.831-3.23a2.145,2.145,0,0,1,.306-.636L245.252,2.3c.119-.158.054-.286-.143-.285l-1.127.007ZM210.2,10.383v0a.433.433,0,0,1-.42.372h-5.391a.232.232,0,0,1-.254-.283.055.055,0,0,1,0-.013l0,0a.16.16,0,0,1,0-.018l.025-.092A3.378,3.378,0,0,1,207.7,8.079C209.917,8.08,210.35,9.164,210.2,10.383ZM208.618,4.16c-6.92,0-8.56,4.2-9.48,8.44-.92,4.321-.841,8.361,6.32,8.361h1.135l.859,0h.014c1.891-.007,3.788-.022,4.556-.028a.466.466,0,0,0,.429-.353l.29-1.417.056-.276.346-1.69a.283.283,0,0,0-.288-.352h-6.438c-2.56,0-3.32-.68-3.04-2.681h10.3a.425.425,0,0,0,.375-.266.368.368,0,0,0,.025-.09h0c1.528-5.763,1.09-9.645-5.456-9.645h0Zm-32.706,6.2-.1.345h0l-.777,2.754-.777,2.753a.5.5,0,0,1-.458.346H169.69c-3.119,0-3.879-2.44-3.119-6.039.759-3.681,2.249-5.969,5.319-6.2C176.086,4,176.925,6.954,175.912,10.361Zm2.821,5.987a46.133,46.133,0,0,0,2.38-7.428c.6-3.64-1.222-8.92-8.263-8.92-7,0-10.04,5.041-11.2,10.52-1.16,5.519.36,10.36,7.32,10.32l5.491-.02,5.132-.019a.5.5,0,0,0,.45-.349l.894-3.41a.266.266,0,0,0-.269-.35l-.857,0-.856-.005a.22.22,0,0,1-.244-.254.349.349,0,0,1,.021-.08h0Z" transform="translate(-123.894)" fill="#131b28"/>
    <path id="Path_45" data-name="Path 45" d="M384.356,56.126a.236.236,0,1,1-.236-.236A.236.236,0,0,1,384.356,56.126Z" transform="translate(-294.864 -42.93)" fill="#131b28"/>
    <path id="Path_46" data-name="Path 46" d="M1.387,24.171c-1.933,2.778-1.692,6.392-.216,9.344.035.071.072.14.108.21.023.044.045.09.069.133.014.026.029.052.043.077.025.047.051.092.077.138.046.081.093.161.141.242l.08.132c.053.086.108.171.164.256.023.036.046.072.07.108q.115.172.237.342l.007.009.04.054c.07.1.143.192.216.287l.081.1q.136.17.276.336t.283.323a.123.123,0,0,1,.011.012q.29.314.6.61c.031.029.062.06.092.088q.154.146.314.285l.054.046c.092.08.186.159.281.237l.116.093q.116.093.234.183l.125.1q.13.1.263.189l.1.068.026.019c.084.058.17.113.255.169.037.024.073.05.111.074.131.083.265.165.4.245l.11.062c.1.057.2.113.3.168.054.029.111.057.166.085.071.037.142.075.215.112l.05.024.088.042q.2.1.412.19t.4.165l.1.038q.209.081.421.155c.138.048.277.093.417.137l.1.03a4.041,4.041,0,0,0,.431.122c9.348,1.7,12.063-5.617,12.063-5.617-2.28,2.971-6.328,3.754-10.164,2.882-.145-.033-.286-.078-.428-.12q-.261-.078-.519-.167l-.057-.02q-.183-.065-.363-.135l-.1-.04q-.2-.078-.392-.163L9.2,36.591q-.215-.1-.427-.2c-.086-.042-.171-.086-.256-.13-.057-.03-.115-.058-.171-.09q-.155-.083-.307-.172l-.1-.058q-.2-.119-.4-.245l-.108-.072q-.144-.092-.284-.189c-.031-.021-.061-.044-.092-.064-.09-.064-.18-.129-.269-.194l-.119-.09q-.177-.136-.351-.276-.153-.125-.3-.255l-.033-.028q-.161-.142-.317-.289l-.09-.086q-.116-.11-.228-.224l-.09-.089q-.143-.146-.28-.3l-.014-.015q-.145-.159-.284-.323L4.6,33.118q-.1-.125-.2-.253l-.075-.093c-.08-.1-.159-.208-.236-.314A9.853,9.853,0,0,1,2.9,22.258" transform="translate(0 -17.097)" fill="#0868ac"/>
    <path id="Path_47" data-name="Path 47" d="M28.375,15.077a6.721,6.721,0,0,0-.231,6.832,8.892,8.892,0,0,0,.618,1.032,4.912,4.912,0,0,0,.72.9c.1.111.206.219.314.326.027.028.055.054.083.082.1.1.211.2.32.3l.013.011,0,0c.121.106.247.209.374.31l.085.066c.128.1.258.194.391.286l.011.009c.059.041.119.079.179.118.029.019.056.038.085.056.1.061.192.121.29.178l.041.024c.085.049.17.1.256.143.03.017.061.032.091.048.059.031.119.063.179.093l.027.013c.123.061.247.119.374.174l.083.034c.1.043.2.085.307.125l.131.048c.093.035.187.066.282.1l.128.041a3.123,3.123,0,0,0,.407.118c7.217,1.2,8.884-4.361,8.884-4.361a6.856,6.856,0,0,1-7.514,2.39q-.268-.071-.531-.158-.209-.068-.415-.147-.155-.059-.308-.124l-.083-.035q-.19-.083-.376-.175c-.064-.031-.126-.064-.189-.1l-.109-.056q-.12-.065-.239-.135L33,23.608q-.146-.086-.289-.177l-.087-.058-.188-.124q-.2-.138-.39-.285l-.088-.069a8.7,8.7,0,0,1-2.948-4.2,6.518,6.518,0,0,1,.509-5.229" transform="translate(-20.989 -10.343)" fill="#0868ac"/>
    <path id="Path_48" data-name="Path 48" d="M51.289,10.059a4.207,4.207,0,0,0-.333,4.058,5.716,5.716,0,0,0,3.281,3.066c.059.022.119.042.179.062l.079.025a2.243,2.243,0,0,0,.257.074c3.985.77,5.066-2.045,5.354-2.459-.947,1.363-2.538,1.69-4.49,1.217q-.24-.061-.472-.146a5.714,5.714,0,0,1-1.544-.833c-1.747-1.325-2.832-3.854-1.692-5.914m44.266,24.47-1.149,2.616H93.755l.1-2.377-.934,2.377H91.7l-.032-2.616.136-.646h.87L92.5,35.617l.965-2.584H94.68l-.088,2.616.957-2.616h.758Zm2,.775c.112-.511.08-.606-.183-.606h-.4l-.255,1.2-.391,1.252H96.2l.606-2.839.088-.415h.678l.088.191A1.78,1.78,0,0,1,98.435,33c.814,0,.75.614.574,1.452Zm2.409-1.828c-.327,0-.534-.1-.455-.494a.582.582,0,0,1,.662-.495c.32,0,.535.1.447.495a.577.577,0,0,1-.654.494Zm-.351,3.669H99.5l.144-1.276.255-1.18-.51-.112.143-.694h1.4Zm3.182-2.57-.917.112-.264,1.244c-.072.343-.072.439.232.439h.614l-.128.654a4.293,4.293,0,0,1-.8.168c-.941,0-.933-.518-.765-1.292l.255-1.22-.511-.111.151-.694h.535l.3-.822h.726l-.176.822h.893l-.152.7Zm1.906.042a.693.693,0,0,0-.742.622l1.228-.1C105.862,34.014,105.806,33.766,105.32,33.766Zm-.861,1.212c-.056.4.1.535.606.535h1.284l-.128.606a6.214,6.214,0,0,1-1.348.215c-1.428,0-1.444-.8-1.26-1.667.183-.845.51-1.683,1.89-1.683,1.332,0,1.4.805,1.069,1.994Zm5.04,1.316h-.733l.144-1.276.519-2.425-.511-.119.152-.694h1.4l-.965,4.514Zm2.651-2.528a.693.693,0,0,0-.742.622l1.229-.1C112.691,34.014,112.635,33.766,112.149,33.766Zm-.862,1.212c-.056.4.1.535.606.535h1.284l-.128.606a6.22,6.22,0,0,1-1.348.215c-1.428,0-1.444-.8-1.26-1.667.184-.845.511-1.683,1.89-1.683,1.332,0,1.4.805,1.069,1.994Zm5.479-1.173s-.933.008-1.188.008c-.543,0-.6.167-.638.343l-.032.16,1.723.128a4.753,4.753,0,0,1-.064.861,1.488,1.488,0,0,1-1.6,1.045,7.122,7.122,0,0,1-1.252-.183l.135-.63h1.189c.527,0,.6-.144.631-.287l.04-.207-1.691-.128a2.721,2.721,0,0,1,.024-.845A1.487,1.487,0,0,1,115.657,33a7.429,7.429,0,0,1,1.252.175l-.144.631Zm3.207,0s-.933.008-1.188.008c-.542,0-.6.167-.638.343l-.032.16,1.723.128a4.753,4.753,0,0,1-.064.861,1.488,1.488,0,0,1-1.6,1.045,7.126,7.126,0,0,1-1.252-.183l.136-.63h1.188c.526,0,.6-.144.631-.287l.04-.207-1.691-.128a2.729,2.729,0,0,1,.024-.845A1.488,1.488,0,0,1,118.865,33a7.429,7.429,0,0,1,1.252.175l-.144.631Zm1,3.008h-.638l.024-.479c-.232-.015-.351-.183-.3-.463a.578.578,0,0,1,.662-.494c.319,0,.534.1.447.494Zm4.267-2.975c-.478,0-.646.287-.758.813s-.08.837.4.837h.662l.367-1.651Zm1.093,2.033-.088.423-.669-.008-.1-.207a3.241,3.241,0,0,1-.989.255c-1.021,0-1.069-.837-.886-1.683.183-.861.583-1.675,1.6-1.675a3.082,3.082,0,0,1,.861.183l.407-1.38h.734Zm2.641-2.066c-.622,0-.822.35-.933.861s-.055.87.558.87c.638,0,.83-.343.941-.87C129.656,34.172,129.623,33.806,128.977,33.806Zm-.542,2.536c-1.316,0-1.42-.821-1.245-1.675A1.847,1.847,0,0,1,129.153,33c1.308,0,1.428.813,1.244,1.667A1.842,1.842,0,0,1,128.435,36.343Zm7.466-.048.144-1.26.072-.359c.1-.478.168-.829-.335-.829h-.391a3.107,3.107,0,0,1-.1.821l-.343,1.627h-.742l.144-1.26.072-.359c.1-.478.167-.829-.334-.829h-.32l-.527,2.449h-.854l.694-3.262h.67l.1.2a2.176,2.176,0,0,1,.822-.24.592.592,0,0,1,.558.287,2.426,2.426,0,0,1,.941-.287c1.02,0,.989.829.805,1.675l-.343,1.627H135.9Zm3.39-2.488c-.623,0-.822.35-.933.861s-.055.87.558.87c.638,0,.83-.343.941-.87.111-.495.08-.861-.566-.861Zm-.542,2.536c-1.317,0-1.42-.821-1.244-1.675A1.847,1.847,0,0,1,139.467,33c1.309,0,1.428.813,1.244,1.667A1.842,1.842,0,0,1,138.75,36.343Zm4.178-1.889c.111-.511.08-.606-.183-.606h-.4l-.255,1.2-.391,1.252h-.741l.606-2.839.088-.415h.678l.087.191a1.783,1.783,0,0,1,.774-.231c.813,0,.749.614.574,1.452Zm2.857-.687a.693.693,0,0,0-.741.622l1.228-.1C146.327,34.014,146.271,33.766,145.785,33.766Zm-.861,1.212c-.055.4.1.535.606.535h1.284l-.128.606a6.216,6.216,0,0,1-1.348.215c-1.428,0-1.444-.8-1.261-1.667.184-.845.511-1.683,1.891-1.683,1.332,0,1.4.805,1.069,1.994h-2.113Zm2.83,1.364c-.335,0-.542-.1-.454-.486s.327-.495.662-.495c.311,0,.526.1.447.495A.585.585,0,0,1,147.754,36.343Z" transform="translate(-38.857 -7.073)" fill="#0868ac"/>
  </g>
</svg>
