<svg xmlns="http://www.w3.org/2000/svg" width="110.666" height="30.56" viewBox="0 0 110.666 30.56">
  <g id="Group_5504" data-name="Group 5504" transform="translate(5031 -3106)">
    <g id="Group_5503" data-name="Group 5503">
      <g id="Group_5502" data-name="Group 5502">
        <g id="Group_5501" data-name="Group 5501" transform="translate(-5387.223 2634.36)">
          <path id="Path_7020" data-name="Path 7020" d="M369.469,471.64l-13.245,7.646v15.272L360,496.743l-.026-15.275,9.463-5.463,9.466,5.463v15.269l3.781-2.179V479.272Z" fill="#f26322"/>
          <path id="Path_7021" data-name="Path 7021" d="M368.457,492.984l-1.889,1.1-1.9-1.088V477.712l-3.778,2.184.006,15.275,5.667,3.273,5.673-3.273V479.9l-3.781-2.184Z" transform="translate(2.888 3.756)" fill="#f26322"/>
          <path id="Path_7022" data-name="Path 7022" d="M378.656,476.422l5.2,13.135h.044l5.073-13.135h1.98v15.05h-1.369V478.358h-.042c-.071.238-.149.476-.232.714q-.107.294-.243.651c-.091.241-.175.465-.241.675l-4.357,11.075h-1.243l-4.4-11.072c-.084-.2-.17-.409-.254-.641s-.162-.453-.233-.665c-.084-.253-.17-.5-.253-.736h-.045v13.114h-1.3v-15.05Z" transform="translate(12.693 2.958)" fill="#4d4d4d"/>
          <path id="Path_7023" data-name="Path 7023" d="M388.8,490.031a3.18,3.18,0,0,1-1.125-.567,2.706,2.706,0,0,1-.748-.949,3.027,3.027,0,0,1-.274-1.324,3.1,3.1,0,0,1,.358-1.578,2.746,2.746,0,0,1,.968-.978,4.88,4.88,0,0,1,1.421-.558,15.047,15.047,0,0,1,1.735-.293q.8-.085,1.36-.181a4.3,4.3,0,0,0,.9-.243,1.1,1.1,0,0,0,.505-.39,1.233,1.233,0,0,0,.157-.665v-.21a1.981,1.981,0,0,0-.675-1.651,3.047,3.047,0,0,0-1.936-.537q-2.906,0-3.053,2.423h-1.285a3.56,3.56,0,0,1,1.167-2.527,4.633,4.633,0,0,1,3.168-.948,4.521,4.521,0,0,1,2.82.792,3.047,3.047,0,0,1,1.031,2.58v5.913a1.1,1.1,0,0,0,.181.7.716.716,0,0,0,.537.244,1.11,1.11,0,0,0,.219-.021A2.648,2.648,0,0,0,396.5,489h.063v.948a2.69,2.69,0,0,1-.356.117,2.218,2.218,0,0,1-.526.053,1.671,1.671,0,0,1-1.14-.371,1.592,1.592,0,0,1-.465-1.167v-.231h-.057a5.979,5.979,0,0,1-.557.654,3.733,3.733,0,0,1-.792.612,4.434,4.434,0,0,1-1.073.44,5.137,5.137,0,0,1-1.389.167,5.013,5.013,0,0,1-1.411-.191m3.21-1.148a3.7,3.7,0,0,0,1.149-.727,2.958,2.958,0,0,0,.927-2.127v-1.959a4.665,4.665,0,0,1-1.276.455q-.748.16-1.549.262c-.461.071-.89.146-1.284.22a3.2,3.2,0,0,0-1.021.367,1.89,1.89,0,0,0-.685.685,2.214,2.214,0,0,0-.254,1.128,2,2,0,0,0,.2.947,1.731,1.731,0,0,0,.528.612,2.083,2.083,0,0,0,.767.327,4.462,4.462,0,0,0,.927.092,4.054,4.054,0,0,0,1.568-.283" transform="translate(18.824 4.463)" fill="#4d4d4d"/>
          <path id="Path_7024" data-name="Path 7024" d="M394.808,492.97a2.9,2.9,0,0,1-1.243-2.033h1.261a1.784,1.784,0,0,0,1.023,1.36,4.636,4.636,0,0,0,2.031.41,3.518,3.518,0,0,0,2.58-.83,3.084,3.084,0,0,0,.83-2.287v-1.724h-.063a4.531,4.531,0,0,1-1.411,1.408,3.9,3.9,0,0,1-2.041.482,4.543,4.543,0,0,1-1.937-.4,4.26,4.26,0,0,1-1.475-1.115,4.98,4.98,0,0,1-.937-1.714,7.039,7.039,0,0,1-.327-2.2,6.759,6.759,0,0,1,.376-2.345,5.207,5.207,0,0,1,1.012-1.716,4.185,4.185,0,0,1,1.486-1.052,4.608,4.608,0,0,1,1.8-.356,3.857,3.857,0,0,1,2.082.516,4.3,4.3,0,0,1,1.368,1.4h.065v-1.688h1.29v10.463a4.193,4.193,0,0,1-1.012,2.927,4.788,4.788,0,0,1-3.64,1.3,5.158,5.158,0,0,1-3.116-.811m5.706-5.507a5.287,5.287,0,0,0,.864-3.156,6.933,6.933,0,0,0-.21-1.769,3.836,3.836,0,0,0-.654-1.379,2.982,2.982,0,0,0-1.105-.893,3.536,3.536,0,0,0-1.547-.317,2.957,2.957,0,0,0-2.515,1.2,5.219,5.219,0,0,0-.9,3.2,6.663,6.663,0,0,0,.21,1.716,4.171,4.171,0,0,0,.63,1.368,2.954,2.954,0,0,0,1.052.9,3.2,3.2,0,0,0,1.5.327,3.069,3.069,0,0,0,2.672-1.2" transform="translate(22.813 4.465)" fill="#4d4d4d"/>
          <path id="Path_7025" data-name="Path 7025" d="M402.86,489.82a4.435,4.435,0,0,1-1.588-1.2,5.364,5.364,0,0,1-.979-1.811,7.366,7.366,0,0,1-.337-2.263,6.894,6.894,0,0,1,.358-2.263,5.6,5.6,0,0,1,1-1.808,4.529,4.529,0,0,1,1.559-1.2,4.775,4.775,0,0,1,2.054-.431,4.481,4.481,0,0,1,2.2.5,4.109,4.109,0,0,1,1.45,1.324,5.486,5.486,0,0,1,.793,1.905,10.454,10.454,0,0,1,.228,2.209H401.3a6.287,6.287,0,0,0,.264,1.716,4.306,4.306,0,0,0,.694,1.379,3.181,3.181,0,0,0,1.148.927,3.692,3.692,0,0,0,1.622.337,3.093,3.093,0,0,0,2.117-.664,3.642,3.642,0,0,0,1.06-1.78h1.264A4.619,4.619,0,0,1,408,489.282a4.379,4.379,0,0,1-2.967.968,5.2,5.2,0,0,1-2.169-.431M408,482.24a3.692,3.692,0,0,0-.61-1.22,2.784,2.784,0,0,0-1.012-.811,3.321,3.321,0,0,0-1.45-.295,3.411,3.411,0,0,0-1.466.295,3.133,3.133,0,0,0-1.086.811,4.065,4.065,0,0,0-.7,1.211,6.008,6.008,0,0,0-.348,1.515h6.907A5.712,5.712,0,0,0,408,482.24" transform="translate(27.055 4.455)" fill="#4d4d4d"/>
          <path id="Path_7026" data-name="Path 7026" d="M408.218,479.087v1.661h.042a4.519,4.519,0,0,1,1.442-1.358,4.208,4.208,0,0,1,2.2-.537,3.613,3.613,0,0,1,2.5.876,3.181,3.181,0,0,1,.979,2.515v7.729h-1.306v-7.6a2.3,2.3,0,0,0-.664-1.823,2.663,2.663,0,0,0-1.823-.578,3.659,3.659,0,0,0-1.3.233,3.483,3.483,0,0,0-1.075.641,2.957,2.957,0,0,0-.727.978,2.913,2.913,0,0,0-.264,1.243v6.907h-1.3V479.087Z" transform="translate(31.358 4.462)" fill="#4d4d4d"/>
          <path id="Path_7027" data-name="Path 7027" d="M415.066,490.792a1.822,1.822,0,0,1-.568-1.505V481.35h-1.641v-1.075H414.5v-3.347h1.3v3.347h2.023v1.075H415.8v7.726a1.018,1.018,0,0,0,.264.811,1.208,1.208,0,0,0,.788.22,2.509,2.509,0,0,0,.864-.17h.063v1.115a3.649,3.649,0,0,1-1.2.189,2.354,2.354,0,0,1-1.515-.453" transform="translate(35.036 3.271)" fill="#4d4d4d"/>
          <path id="Path_7028" data-name="Path 7028" d="M419.434,489.82a4.579,4.579,0,0,1-1.588-1.2,5.376,5.376,0,0,1-1-1.81,7.564,7.564,0,0,1,0-4.526,5.408,5.408,0,0,1,1-1.813,4.58,4.58,0,0,1,1.588-1.2,5.016,5.016,0,0,1,2.116-.429,4.955,4.955,0,0,1,2.106.429,4.584,4.584,0,0,1,1.578,1.2,5.186,5.186,0,0,1,.987,1.813,7.773,7.773,0,0,1,0,4.526,5.265,5.265,0,0,1-.987,1.81,4.564,4.564,0,0,1-1.578,1.2,4.94,4.94,0,0,1-2.106.431,5.005,5.005,0,0,1-2.116-.431m3.718-1.021a3.322,3.322,0,0,0,1.157-.987,4.443,4.443,0,0,0,.694-1.476,7.013,7.013,0,0,0,0-3.577,4.433,4.433,0,0,0-.694-1.475,3.259,3.259,0,0,0-1.157-.987,3.37,3.37,0,0,0-1.6-.358,3.566,3.566,0,0,0-1.611.358,3.36,3.36,0,0,0-1.159.987,4.329,4.329,0,0,0-.706,1.475,7.051,7.051,0,0,0,0,3.577,4.382,4.382,0,0,0,.706,1.476,3.4,3.4,0,0,0,1.159.987,3.431,3.431,0,0,0,1.611.358,3.356,3.356,0,0,0,1.6-.358" transform="translate(37.288 4.455)" fill="#4d4d4d"/>
          <path id="Path_7029" data-name="Path 7029" d="M424.268,481.186a1.4,1.4,0,0,1,0-2.8,1.4,1.4,0,0,1,0,2.8m0-2.643a1.24,1.24,0,1,0,1.177,1.241,1.143,1.143,0,0,0-1.177-1.241m.4,1.993-.463-.665h-.151v.641h-.267v-1.556h.471c.322,0,.541.164.541.455a.419.419,0,0,1-.314.427l.447.635Zm-.406-1.332h-.207v.456h.193c.175,0,.285-.073.285-.23s-.1-.23-.27-.23" transform="translate(41.248 4.171)" fill="#4d4d4d"/>
        </g>
      </g>
    </g>
  </g>
</svg>
